<?xml version="1.0" standalone="no"?>
<!DOCTYPE svg PUBLIC "-//W3C//DTD SVG 20010904//EN"
 "http://www.w3.org/TR/2001/REC-SVG-20010904/DTD/svg10.dtd">
<svg version="1.0" xmlns="http://www.w3.org/2000/svg"
 width="351.000000pt" height="351.000000pt" viewBox="0 0 351.000000 351.000000"
 preserveAspectRatio="xMidYMid meet">
<metadata>
Created by potrace 1.11, written by Peter Selinger 2001-2013
</metadata>
<g transform="translate(0.000000,351.000000) scale(0.100000,-0.100000)"
fill="#000000" stroke="none">
<path d="M2058 3298 c-80 -84 -160 -169 -178 -188 -141 -153 -232 -240 -243
-233 -7 3 -37 30 -67 58 -30 29 -73 68 -95 87 l-40 35 -199 2 -200 2 49 -43
c27 -24 60 -52 74 -63 14 -11 35 -28 46 -38 11 -10 106 -91 210 -179 105 -89
199 -170 211 -180 21 -19 23 -18 555 408 294 234 550 439 569 455 l35 29 -291
0 -290 0 -146 -152z"/>
<path d="M729 2345 c-3 -475 1 -1438 6 -1496 14 -163 65 -342 126 -447 19 -31
68 -92 110 -134 107 -107 217 -159 404 -193 39 -7 211 -7 250 0 177 32 324
112 426 230 19 22 40 46 47 53 7 8 19 27 28 43 24 47 32 33 49 -86 5 -30 29
-169 31 -177 1 -5 2 -12 3 -16 0 -5 120 -9 266 -9 l265 0 1 31 c0 17 1 536 2
1153 1 741 -1 1124 -8 1126 -5 2 -147 3 -314 3 l-304 -1 0 -845 0 -845 -52
-51 c-89 -86 -189 -124 -342 -130 -217 -8 -323 83 -361 309 -4 23 -7 383 -7
799 0 498 -3 758 -10 759 -5 1 -146 2 -312 3 l-303 1 -1 -80z"/>
</g>
</svg>
