<svg xmlns="http://www.w3.org/2000/svg" width="62" height="21" viewBox="0 0 62 21"><path d="M8.872 17.221c-1.025 0-1.861-.759-1.861-1.69v-4.487h5.422V7.646H7.011V3.062L3.614 4.063v3.583H1v3.397h2.614v4.487c0 2.805 2.358 5.087 5.258 5.087s5.26-2.282 5.26-5.087h-3.397c-.001.932-.836 1.691-1.863 1.691zm16.44-3.494c0 1.927-1.384 3.494-3.086 3.494-1.701 0-3.086-1.567-3.086-3.494V7.646h-3.396v6.081c0 3.8 2.908 6.891 6.482 6.891 3.575 0 6.483-3.091 6.483-6.891V7.646h-3.397v6.081zm32.291-6.081v6.081c0 1.927-1.384 3.494-3.086 3.494-1.701 0-3.086-1.567-3.086-3.494V7.646h-3.396v6.081c0 3.8 2.908 6.891 6.482 6.891 3.575 0 6.483-3.091 6.483-6.891V7.646h-3.397zm-15.742.615c-1.013-.795-2.29-1.265-3.757-1.265-3.738 0-6.779 3.041-6.779 6.779s3.041 6.779 6.779 6.779c1.467 0 2.744-.47 3.757-1.264v1.172h3.397V.383l-3.397 1.001v6.877zm-3.382 8.896a3.386 3.386 0 0 1-3.383-3.382 3.387 3.387 0 0 1 3.383-3.382 3.387 3.387 0 0 1 3.382 3.382 3.385 3.385 0 0 1-3.382 3.382zM58.165 2.635h-3.397l-1.927 3.556h2.624z" fill="#90A4AE"/></svg>