<?xml version="1.0" standalone="no"?>
<!DOCTYPE svg PUBLIC "-//W3C//DTD SVG 20010904//EN"
 "http://www.w3.org/TR/2001/REC-SVG-20010904/DTD/svg10.dtd">
<svg version="1.0" xmlns="http://www.w3.org/2000/svg"
 width="16.000000pt" height="16.000000pt" viewBox="0 0 16.000000 16.000000"
 preserveAspectRatio="xMidYMid meet">
<metadata>
Created by potrace 1.11, written by Peter Selinger 2001-2013
</metadata>
<g transform="translate(0.000000,16.000000) scale(0.005316,-0.005316)"
fill="#000000" stroke="none">
<path d="M1408 2995 c-2 -1 -32 -5 -68 -8 -427 -37 -850 -298 -1094 -675 -84
-129 -177 -345 -200 -462 -2 -14 -9 -49 -15 -77 -23 -118 -31 -312 -16 -435
66 -568 452 -1056 985 -1243 88 -32 212 -62 285 -71 33 -3 69 -8 80 -10 26 -6
240 -4 285 1 97 12 131 18 205 36 667 167 1141 767 1138 1444 -1 387 -141 746
-397 1022 -233 249 -533 409 -871 463 -60 10 -310 21 -317 15z m292 -139 c14
-3 52 -11 85 -17 144 -26 325 -104 479 -206 171 -113 357 -320 448 -498 62
-122 120 -292 134 -393 3 -26 10 -69 14 -97 10 -65 5 -297 -8 -355 -6 -25 -13
-61 -16 -80 -3 -20 -19 -77 -35 -126 -134 -412 -466 -745 -874 -879 -59 -19
-118 -37 -131 -39 -255 -46 -485 -36 -701 31 -115 35 -307 133 -400 202 -293
220 -479 523 -543 883 -23 127 -22 324 2 456 90 500 444 905 932 1066 45 15
95 29 110 32 16 2 35 7 42 9 7 2 40 7 75 11 34 3 64 8 66 10 6 5 294 -4 321
-10z"/>
<path d="M1335 2300 c-49 -15 -116 -35 -147 -44 -67 -20 -60 3 -59 -213 l2
-143 -126 0 -125 0 2 -162 3 -163 120 0 120 0 2 -250 c1 -228 3 -256 23 -314
101 -301 458 -429 739 -264 126 74 230 242 227 368 l-1 40 -153 0 c-113 1
-156 -3 -164 -12 -6 -7 -8 -13 -4 -13 4 0 -3 -18 -14 -40 -48 -95 -179 -121
-268 -54 -58 45 -63 68 -60 317 l3 222 253 0 252 0 0 162 0 163 -255 0 -255 0
0 215 c0 166 -3 215 -12 214 -7 -1 -53 -14 -103 -29z"/>
</g>
</svg>
