<?xml version="1.0" encoding="utf-8"?>
<!-- Generator: Adobe Illustrator 16.0.0, SVG Export Plug-In . SVG Version: 6.00 Build 0)  -->
<!DOCTYPE svg PUBLIC "-//W3C//DTD SVG 1.1//EN" "http://www.w3.org/Graphics/SVG/1.1/DTD/svg11.dtd">
<svg version="1.1" id="Layer_1" xmlns="http://www.w3.org/2000/svg" xmlns:xlink="http://www.w3.org/1999/xlink" x="0px" y="0px"
	 width="62px" height="21px" viewBox="0 0 62 21" enable-background="new 0 0 62 21" xml:space="preserve">
<g>
	<path fill="#90A4AE" d="M8.872,17.221c-1.025,0-1.861-0.759-1.861-1.69v-4.487h5.422V7.646H7.011V3.062L3.614,4.063v3.583H1v3.397
		h2.614v4.487c0,2.805,2.358,5.087,5.258,5.087c2.9,0,5.26-2.282,5.26-5.087h-3.397C10.734,16.462,9.899,17.221,8.872,17.221z"/>
	<path fill="#90A4AE" d="M25.312,13.727c0,1.927-1.384,3.494-3.086,3.494c-1.701,0-3.086-1.567-3.086-3.494V7.646h-3.396v6.081
		c0,3.8,2.908,6.891,6.482,6.891c3.575,0,6.483-3.091,6.483-6.891V7.646h-3.397V13.727z"/>
	<path fill="#90A4AE" d="M57.603,7.646v6.081c0,1.927-1.384,3.494-3.086,3.494c-1.701,0-3.086-1.567-3.086-3.494V7.646h-3.396v6.081
		c0,3.8,2.908,6.891,6.482,6.891c3.575,0,6.483-3.091,6.483-6.891V7.646H57.603z"/>
	<path fill="#90A4AE" d="M41.861,8.261c-1.013-0.795-2.29-1.265-3.757-1.265c-3.738,0-6.779,3.041-6.779,6.779
		s3.041,6.779,6.779,6.779c1.467,0,2.744-0.47,3.757-1.264v1.172h3.397V0.383l-3.397,1.001V8.261z M38.479,17.157
		c-1.865,0-3.383-1.517-3.383-3.382c0-1.864,1.518-3.382,3.383-3.382c1.864,0,3.382,1.518,3.382,3.382
		C41.861,15.641,40.344,17.157,38.479,17.157z"/>
	<polygon fill="#90A4AE" points="58.165,2.635 54.768,2.635 52.841,6.191 55.465,6.191 	"/>
</g>
</svg>
