<?xml version="1.0" encoding="utf-8"?>
<!DOCTYPE svg PUBLIC "-//W3C//DTD SVG 1.1//EN" "http://www.w3.org/Graphics/SVG/1.1/DTD/svg11.dtd">
<svg version="1.1" id="Layer_1" xmlns="http://www.w3.org/2000/svg" xmlns:xlink="http://www.w3.org/1999/xlink" x="0px" y="0px"
	 width="60px" height="20.172px" viewBox="0 0 60 20.172" enable-background="new 0 0 60 20.172" xml:space="preserve">
<g>
	<path fill="#90A4AE" d="M7.873,16.838c-1.026,0-1.862-0.759-1.862-1.69V9.66h5.422V6.263H6.011V1.679H2.614v4.584H0V9.66h2.614
		v5.487c0,2.805,2.359,5.087,5.259,5.087s5.259-2.282,5.259-5.087H9.734C9.734,16.079,8.899,16.838,7.873,16.838z"/>
	<path fill="#90A4AE" d="M24.312,13.344c0,1.927-1.384,3.494-3.086,3.494s-3.086-1.567-3.086-3.494V6.263h-3.397v7.081
		c0,3.8,2.908,6.891,6.483,6.891s6.483-3.091,6.483-6.891V6.263h-3.397V13.344z"/>
	<path fill="#90A4AE" d="M56.603,6.263v7.081c0,1.927-1.384,3.494-3.085,3.494s-3.086-1.567-3.086-3.494V6.263h-3.397v7.081
		c0,3.8,2.908,6.891,6.483,6.891S60,17.144,60,13.344V6.263H56.603z"/>
	<path fill="#90A4AE" d="M40.861,7.878c-1.013-0.795-2.29-1.265-3.757-1.265c-3.738,0-6.779,3.041-6.779,6.779
		s3.042,6.779,6.779,6.779c1.467,0,2.744-0.47,3.757-1.264v1.062h3.397V0h-3.397V7.878z M37.479,16.774
		c-1.865,0-3.382-1.517-3.382-3.382c0-1.864,1.517-3.382,3.382-3.382s3.382,1.518,3.382,3.382
		C40.861,15.258,39.344,16.774,37.479,16.774z"/>
	<polygon fill="#90A4AE" points="57.046,0 53.648,0 51.818,4.808 55.216,4.808"/>
</g>
</svg>
