<svg xmlns="http://www.w3.org/2000/svg" width="60" height="20.172" viewBox="0 0 60 20.172"><path d="M7.873 16.838c-1.026 0-1.862-.759-1.862-1.69V9.66h5.422V6.263H6.011V1.679H2.614v4.584H0V9.66h2.614v5.487c0 2.805 2.359 5.087 5.259 5.087s5.259-2.282 5.259-5.087H9.734c0 .932-.835 1.691-1.861 1.691zm16.439-3.494c0 1.927-1.384 3.494-3.086 3.494s-3.086-1.567-3.086-3.494V6.263h-3.397v7.081c0 3.8 2.908 6.891 6.483 6.891s6.483-3.091 6.483-6.891V6.263h-3.397v7.081zm32.291-7.081v7.081c0 1.927-1.384 3.494-3.085 3.494s-3.086-1.567-3.086-3.494V6.263h-3.397v7.081c0 3.8 2.908 6.891 6.483 6.891S60 17.144 60 13.344V6.263h-3.397zM40.861 7.878c-1.013-.795-2.29-1.265-3.757-1.265-3.738 0-6.779 3.041-6.779 6.779s3.042 6.779 6.779 6.779c1.467 0 2.744-.47 3.757-1.264v1.062h3.397V0h-3.397v7.878zm-3.382 8.896a3.386 3.386 0 0 1-3.382-3.382c0-1.864 1.517-3.382 3.382-3.382s3.382 1.518 3.382 3.382a3.385 3.385 0 0 1-3.382 3.382zM57.046 0h-3.398l-1.83 4.808h3.398z" fill="#90A4AE"/></svg>